<svg width="30" height="31" viewBox="0 0 30 31" fill="none" xmlns="http://www.w3.org/2000/svg">
<path d="M28.5 5H1.5C1.10218 5 0.720644 5.15804 0.43934 5.43934C0.158035 5.72064 0 6.10218 0 6.5C0 6.89782 0.158035 7.27936 0.43934 7.56066C0.720644 7.84196 1.10218 8 1.5 8H4.5V26C4.5 27.1935 4.97411 28.3381 5.81802 29.182C6.66193 30.0259 7.80653 30.5 9 30.5H21C22.1935 30.5 23.3381 30.0259 24.182 29.182C25.0259 28.3381 25.5 27.1935 25.5 26V8H28.5C28.8978 8 29.2794 7.84196 29.5607 7.56066C29.842 7.27936 30 6.89782 30 6.5C30 6.10218 29.842 5.72064 29.5607 5.43934C29.2794 5.15804 28.8978 5 28.5 5ZM13.5 21.5C13.5 21.8978 13.342 22.2794 13.0607 22.5607C12.7794 22.842 12.3978 23 12 23C11.6022 23 11.2206 22.842 10.9393 22.5607C10.658 22.2794 10.5 21.8978 10.5 21.5V14C10.5 13.6022 10.658 13.2206 10.9393 12.9393C11.2206 12.658 11.6022 12.5 12 12.5C12.3978 12.5 12.7794 12.658 13.0607 12.9393C13.342 13.2206 13.5 13.6022 13.5 14V21.5ZM19.5 21.5C19.5 21.8978 19.342 22.2794 19.0607 22.5607C18.7794 22.842 18.3978 23 18 23C17.6022 23 17.2206 22.842 16.9393 22.5607C16.658 22.2794 16.5 21.8978 16.5 21.5V14C16.5 13.6022 16.658 13.2206 16.9393 12.9393C17.2206 12.658 17.6022 12.5 18 12.5C18.3978 12.5 18.7794 12.658 19.0607 12.9393C19.342 13.2206 19.5 13.6022 19.5 14V21.5ZM12 3.5H18C18.3978 3.5 18.7794 3.34196 19.0607 3.06066C19.342 2.77936 19.5 2.39782 19.5 2C19.5 1.60218 19.342 1.22064 19.0607 0.93934C18.7794 0.658035 18.3978 0.5 18 0.5H12C11.6022 0.5 11.2206 0.658035 10.9393 0.93934C10.658 1.22064 10.5 1.60218 10.5 2C10.5 2.39782 10.658 2.77936 10.9393 3.06066C11.2206 3.34196 11.6022 3.5 12 3.5Z" fill="#1C1C1C"/>
</svg>
