<svg width="32" height="29" viewBox="0 0 32 29" fill="none" xmlns="http://www.w3.org/2000/svg">
<path fill-rule="evenodd" clip-rule="evenodd" d="M5.29001 0.605469C4.07267 0.605469 2.90518 1.08906 2.04439 1.94985C1.1836 2.81064 0.700012 3.97813 0.700012 5.19547V26.6155C0.70017 26.8654 0.761536 27.1114 0.878745 27.3321C0.995954 27.5528 1.16544 27.7415 1.37238 27.8815C1.57933 28.0216 1.81744 28.1089 2.06589 28.1357C2.31434 28.1625 2.56558 28.128 2.79764 28.0353L9.90143 25.1941C10.082 25.1222 10.2748 25.0855 10.4691 25.0855H26.71C27.9274 25.0855 29.0948 24.6019 29.9556 23.7411C30.8164 22.8803 31.3 21.7128 31.3 20.4955V5.19547C31.3 3.97813 30.8164 2.81064 29.9556 1.94985C29.0948 1.08906 27.9274 0.605469 26.71 0.605469H5.29001ZM9.88001 12.8455C9.88001 12.4397 10.0412 12.0505 10.3281 11.7636C10.6151 11.4767 11.0042 11.3155 11.41 11.3155H14.47V8.25547C14.47 7.84969 14.6312 7.46053 14.9181 7.1736C15.2051 6.88667 15.5942 6.72547 16 6.72547C16.4058 6.72547 16.795 6.88667 17.0819 7.1736C17.3688 7.46053 17.53 7.84969 17.53 8.25547V11.3155H20.59C20.9958 11.3155 21.385 11.4767 21.6719 11.7636C21.9588 12.0505 22.12 12.4397 22.12 12.8455C22.12 13.2513 21.9588 13.6404 21.6719 13.9273C21.385 14.2143 20.9958 14.3755 20.59 14.3755H17.53V17.4355C17.53 17.8413 17.3688 18.2304 17.0819 18.5173C16.795 18.8043 16.4058 18.9655 16 18.9655C15.5942 18.9655 15.2051 18.8043 14.9181 18.5173C14.6312 18.2304 14.47 17.8413 14.47 17.4355V14.3755H11.41C11.0042 14.3755 10.6151 14.2143 10.3281 13.9273C10.0412 13.6404 9.88001 13.2513 9.88001 12.8455Z" fill="#1C1C1C"/>
</svg>
