<svg width="240" height="233" viewBox="0 0 240 233" fill="none" xmlns="http://www.w3.org/2000/svg">
<path d="M209.306 201.087C203.113 207.471 201.814 208.39 197.571 211.223C156.193 238.852 96.3202 232.174 81.6961 229.452C58.102 225.061 46.515 223.51 29.4034 208.051C-9.48026 172.921 -7.58903 99.6373 22.1229 54.2414C25.6453 48.8592 54.7937 7.09443 102.197 0.897808C103.356 0.746331 158.272 -6.50484 195.325 24.5377C203.768 31.6341 211.1 39.954 217.08 49.221C246.021 93.9195 246.113 163.147 209.306 201.087Z" fill="white" fill-opacity="0.1"/>
<path d="M24.8432 16.8181C24.4003 15.814 25.5238 14.8365 26.4659 15.3994C36.0322 21.1165 59.9817 39.2635 63.7608 79.3047C68.5012 129.543 82.5998 145.168 97.6703 153.285C97.6703 153.285 79.1249 151.974 64.1991 136.253C27.5521 97.6567 32.719 34.6715 24.8432 16.8181Z" fill="#C6C9D3"/>
<g style="mix-blend-mode:soft-light">
<path d="M34.2253 30.7812C36.4097 36.0117 38.4896 41.2823 40.374 46.6216C42.2859 51.9499 44.0329 57.3309 45.615 62.7645C47.1733 68.2007 48.6294 73.6653 49.8513 79.1837C51.0979 84.6965 52.1062 90.2564 53.0991 95.8423C54.1227 101.419 55.122 107.044 56.7003 112.583C58.2701 118.112 60.5252 123.542 63.7055 128.399C64.4998 129.609 65.3191 130.809 66.201 131.95C67.062 133.107 67.9747 134.226 68.9069 135.329C74.536 141.969 81.551 147.297 89.459 150.936C89.5883 151 89.7287 151.037 89.8723 151.046C90.016 151.054 90.1599 151.035 90.296 150.988C90.432 150.941 90.5576 150.868 90.6654 150.773C90.7732 150.678 90.8612 150.562 90.9243 150.433C90.9874 150.303 91.0245 150.163 91.0334 150.019C91.0422 149.876 91.0227 149.732 90.9759 149.596C90.9291 149.46 90.856 149.334 90.7607 149.226C90.6654 149.119 90.5498 149.031 90.4205 148.967L90.4168 148.966C89.1681 148.335 87.9281 147.691 86.7211 146.994C86.1119 146.655 85.519 146.29 84.9194 145.936C84.334 145.56 83.7339 145.206 83.1607 144.813C80.842 143.278 78.637 141.579 76.5631 139.727C72.4067 136.047 68.7785 131.727 65.7323 127.092C64.2334 124.758 62.9128 122.313 61.7816 119.78C60.658 117.232 59.7057 114.611 58.9314 111.935C57.3577 106.568 56.3225 101.01 55.259 95.4402C54.188 89.871 53.0734 84.2818 51.7306 78.7472C51.0668 75.9783 50.3535 73.2224 49.5907 70.4796C49.2174 69.1063 48.8175 67.7398 48.4203 66.374C48.0096 65.0115 47.5905 63.6518 47.1629 62.295C45.4369 56.8724 43.5457 51.509 41.4892 46.2049C39.4063 40.9147 37.1839 35.6816 34.7636 30.5428C34.7313 30.4726 34.6727 30.4179 34.6004 30.3906C34.5281 30.3632 34.4479 30.3655 34.3773 30.3968C34.3066 30.4282 34.2512 30.4861 34.223 30.5581C34.1947 30.63 34.196 30.7102 34.2264 30.7812H34.2253Z" fill="white"/>
</g>
<path d="M70.7539 153.846C70.7468 154.273 70.6348 154.692 70.4276 155.066C70.2204 155.44 69.9245 155.756 69.566 155.989C69.2074 156.221 68.7972 156.361 68.3716 156.398C67.9459 156.434 67.5178 156.365 67.1251 156.197C57.7334 152.204 32.2014 138.514 22.451 104.661C14.2172 76.0742 7.03584 61.3554 3.31212 54.8996C2.52483 53.5344 3.93792 51.9577 5.3821 52.5885C21.3157 59.5477 71.5798 86.8342 70.7539 153.846Z" fill="#D7D9E0"/>
<path d="M68.3939 154.684C68.3293 154.769 68.2469 154.838 68.1523 154.887C68.0578 154.936 67.9536 154.964 67.8471 154.968C67.7406 154.973 67.6345 154.953 67.5364 154.912C67.4383 154.87 67.3506 154.807 67.2796 154.728C66.9787 154.39 37.0432 120.535 23.7989 81.3033C23.7664 81.2129 23.7523 81.117 23.7573 81.0212C23.7624 80.9253 23.7865 80.8314 23.8283 80.745C23.87 80.6585 23.9286 80.5813 24.0006 80.5177C24.0725 80.4542 24.1564 80.4056 24.2474 80.3749C24.3383 80.3442 24.4345 80.3319 24.5302 80.3388C24.626 80.3456 24.7194 80.3715 24.805 80.4149C24.8906 80.4583 24.9668 80.5183 25.0289 80.5915C25.0911 80.6646 25.138 80.7494 25.167 80.8409C38.3147 119.787 68.0581 153.432 68.3569 153.766C68.4685 153.891 68.5332 154.051 68.5399 154.218C68.5467 154.386 68.4951 154.55 68.3939 154.684Z" fill="#EFEFF4"/>
<path d="M11.875 201.04C11.8778 201.839 12.1966 202.605 12.762 203.17C13.3273 203.734 14.0932 204.053 14.8924 204.054H178.056C178.855 204.052 179.621 203.734 180.186 203.17C180.751 202.605 181.07 201.839 181.073 201.04L182.431 107.275C182.431 105.617 180.477 102.38 176.897 102.623L17.4364 98.4973C16.4066 98.4701 15.3819 98.6524 14.4247 99.0333C13.4675 99.4141 12.5977 99.9856 11.868 100.713C11.1384 101.44 10.5642 102.308 10.1802 103.264C9.79621 104.22 9.61052 105.244 9.63436 106.274L11.875 201.04Z" fill="#333435"/>
<path d="M14.8539 198.148C14.8561 198.905 15.1576 199.629 15.6925 200.164C16.2273 200.699 16.9521 201 17.7085 201.003H174.121C174.877 201 175.602 200.699 176.137 200.164C176.672 199.629 176.973 198.905 176.975 198.148L178.256 113.027C178.106 107.905 173.615 106.064 170.892 106.172L18.0635 102.072C17.3396 102.053 16.6194 102.182 15.9466 102.449C15.2738 102.717 14.6625 103.119 14.1497 103.631C13.637 104.142 13.2336 104.752 12.9639 105.424C12.6942 106.096 12.564 106.816 12.5811 107.54L14.8539 198.148Z" fill="#A8ABB2"/>
<path d="M175.285 157.71H175.279C175.224 157.709 175.17 157.697 175.119 157.676C175.069 157.654 175.023 157.622 174.985 157.583C174.947 157.543 174.916 157.497 174.896 157.446C174.876 157.395 174.866 157.34 174.867 157.285L174.968 150.382C174.97 150.272 175.014 150.167 175.093 150.09C175.171 150.013 175.276 149.97 175.386 149.97H175.392C175.447 149.971 175.502 149.982 175.552 150.004C175.602 150.026 175.648 150.057 175.686 150.097C175.725 150.136 175.755 150.183 175.775 150.234C175.795 150.285 175.805 150.339 175.804 150.394L175.703 157.298C175.702 157.407 175.657 157.512 175.579 157.589C175.5 157.666 175.395 157.71 175.285 157.71Z" fill="#C6C9D3"/>
<path d="M175.534 140.793H175.528C175.473 140.792 175.418 140.781 175.368 140.759C175.317 140.737 175.272 140.706 175.233 140.666C175.195 140.627 175.165 140.58 175.145 140.529C175.125 140.478 175.115 140.423 175.115 140.368L175.504 113.929C175.496 112.359 175.02 111.105 174.086 110.211C172.345 108.542 169.58 108.627 169.463 108.633L120.616 107.323C120.561 107.321 120.507 107.309 120.456 107.287C120.406 107.264 120.361 107.232 120.323 107.193C120.285 107.153 120.256 107.106 120.236 107.055C120.217 107.003 120.207 106.949 120.209 106.894C120.208 106.838 120.218 106.783 120.24 106.731C120.261 106.68 120.293 106.634 120.334 106.596C120.374 106.557 120.422 106.528 120.475 106.509C120.527 106.49 120.583 106.483 120.638 106.487L169.457 107.797C169.76 107.779 172.704 107.728 174.665 109.607C175.768 110.663 176.332 112.119 176.34 113.933L175.952 140.381C175.95 140.491 175.905 140.596 175.827 140.673C175.749 140.75 175.644 140.793 175.534 140.793Z" fill="#C6C9D3"/>
<path d="M170.975 215.41C194.568 203.698 212.769 185.274 214.8 146.721C214.8 146.721 153.392 167.223 170.975 215.41Z" fill="#D7D9E0"/>
<path d="M173.358 214.457C189.942 215.988 205.851 212.117 219.742 192.047C219.742 192.047 179.894 182.693 173.358 214.457Z" fill="#C6C9D3"/>
<path d="M174.79 206.761C174.855 206.761 174.919 206.741 174.971 206.703C175.024 206.666 175.064 206.613 175.086 206.552C185.809 175.981 206.602 158.292 206.811 158.117C206.875 158.064 206.915 157.987 206.922 157.905C206.929 157.822 206.903 157.74 206.85 157.676C206.824 157.645 206.791 157.619 206.755 157.6C206.718 157.581 206.679 157.569 206.638 157.566C206.555 157.558 206.473 157.584 206.409 157.638C206.199 157.814 185.279 175.605 174.495 206.344C174.482 206.383 174.476 206.424 174.478 206.465C174.48 206.506 174.491 206.546 174.508 206.583C174.526 206.62 174.551 206.654 174.582 206.681C174.612 206.708 174.648 206.729 174.687 206.743C174.72 206.755 174.755 206.761 174.79 206.761Z" fill="#EFEFF4"/>
<path d="M182.767 209.157C182.813 209.157 182.858 209.147 182.899 209.128C182.94 209.109 182.977 209.081 183.006 209.046C192.365 198.014 213.304 194.454 213.514 194.419C213.555 194.413 213.594 194.398 213.628 194.376C213.663 194.355 213.694 194.326 213.718 194.293C213.741 194.26 213.759 194.222 213.768 194.182C213.777 194.142 213.779 194.101 213.772 194.06C213.766 194.019 213.752 193.98 213.73 193.945C213.709 193.91 213.68 193.879 213.647 193.855C213.613 193.831 213.575 193.814 213.535 193.805C213.495 193.796 213.453 193.795 213.413 193.802C213.2 193.837 192.035 197.436 182.529 208.642C182.49 208.687 182.465 208.743 182.457 208.802C182.449 208.861 182.458 208.921 182.484 208.976C182.509 209.03 182.549 209.076 182.599 209.108C182.649 209.14 182.708 209.157 182.767 209.157Z" fill="#E8E8EF"/>
<path d="M69.255 136.7H228.076C234.488 136.7 239.686 131.945 239.686 126.078V31.4687C239.686 25.8324 234.873 21.1776 228.722 20.8638L63.7727 12.4529C56.8666 12.1008 51.1578 17.3165 51.5337 23.635L57.6621 126.655C57.9973 132.289 63.0881 136.7 69.255 136.7Z" fill="#FFCE3C"/>
<path d="M144.957 79.6108L58.1406 13.4653C59.9141 12.6957 61.8423 12.3489 63.7728 12.4525L228.722 20.8634C231.411 20.9829 233.984 21.9945 236.035 23.7386L171.061 79.0195C164.007 85.0209 152.403 85.2837 144.957 79.6108Z" fill="#F7E057"/>
<path d="M157.026 76.3329C161.343 76.3329 165.639 74.9202 169.092 72.131L193.573 52.3592C193.742 52.2301 193.881 52.0665 193.982 51.8793C194.082 51.692 194.142 51.4855 194.156 51.2735C194.171 51.0614 194.14 50.8488 194.065 50.6496C193.991 50.4505 193.875 50.2695 193.725 50.1187C193.405 49.8 192.979 49.6098 192.527 49.584C192.076 49.5583 191.631 49.6989 191.276 49.9792L166.795 69.7503C161.595 73.9502 154.028 74.2969 148.394 70.5925L135.709 62.2514C135.331 62.0047 134.875 61.9053 134.429 61.9722C133.982 62.039 133.576 62.2675 133.287 62.6141C132.728 63.3261 132.905 64.3177 133.683 64.8298L146.369 73.171C149.537 75.242 153.241 76.3411 157.026 76.3329Z" fill="#F7EBA6"/>
<path d="M201.532 45.4012C201.949 45.4037 202.354 45.2635 202.68 45.0038L205.975 42.3422C206.144 42.2131 206.284 42.0495 206.384 41.8623C206.485 41.6751 206.544 41.4686 206.559 41.2565C206.573 41.0445 206.542 40.8318 206.468 40.6327C206.394 40.4336 206.278 40.2526 206.128 40.1018C205.807 39.7832 205.381 39.5931 204.93 39.5674C204.479 39.5417 204.034 39.6822 203.679 39.9623L200.383 42.6238C200.215 42.753 200.075 42.9166 199.975 43.1038C199.874 43.2911 199.815 43.4976 199.8 43.7096C199.786 43.9216 199.817 44.1342 199.891 44.3334C199.965 44.5325 200.081 44.7135 200.231 44.8643C200.401 45.0363 200.604 45.1725 200.827 45.2648C201.051 45.357 201.29 45.4034 201.532 45.4012Z" fill="#F7EBA6"/>
<path opacity="0.63" d="M211.544 101.195L210.187 99.9062C209.884 99.6183 209.485 99.4526 209.068 99.4406C208.65 99.4287 208.242 99.5714 207.923 99.8415L137.231 159.695L103.135 127.312C102.82 127.013 102.402 126.846 101.967 126.846C101.532 126.846 101.114 127.013 100.799 127.312L26.117 198.242C25.7908 198.552 25.601 198.979 25.5894 199.429C25.5778 199.878 25.7454 200.314 26.0552 200.64C26.365 200.967 26.7917 201.156 27.2414 201.168C27.6911 201.18 28.127 201.012 28.4531 200.702L101.967 130.881L135.997 163.202C136.3 163.49 136.699 163.656 137.117 163.668C137.535 163.68 137.942 163.537 138.262 163.267L208.954 103.413L211.544 105.874V101.195Z" fill="white"/>
<path d="M100.984 139.889C105.612 139.889 109.364 136.326 109.364 131.93C109.364 127.534 105.612 123.97 100.984 123.97C96.3552 123.97 92.603 127.534 92.603 131.93C92.603 136.326 96.3552 139.889 100.984 139.889Z" fill="white"/>
<path d="M208.968 109.096C213.597 109.096 217.349 105.532 217.349 101.136C217.349 96.7404 213.597 93.1768 208.968 93.1768C204.34 93.1768 200.587 96.7404 200.587 101.136C200.587 105.532 204.34 109.096 208.968 109.096Z" fill="white"/>
</svg>
