<svg width="238" height="262" viewBox="0 0 238 262" fill="none" xmlns="http://www.w3.org/2000/svg">
<path d="M209.306 230.506C203.113 236.89 201.814 237.809 197.571 240.642C156.193 268.271 96.3202 261.593 81.6961 258.871C58.102 254.48 46.515 252.929 29.4034 237.469C-9.48026 202.34 -7.58903 129.056 22.1229 83.6603C25.6453 78.2781 54.7937 36.5134 102.197 30.3168C103.356 30.1653 158.272 22.9141 195.325 53.9566C203.768 61.053 211.1 69.373 217.08 78.64C246.021 123.338 246.113 192.566 209.306 230.506Z" fill="white" fill-opacity="0.1"/>
<path d="M24.8432 46.237C24.4003 45.2329 25.5238 44.2554 26.4659 44.8184C36.0322 50.5354 59.9817 68.6824 63.7608 108.724C68.5012 158.962 82.5998 174.587 97.6703 182.704C97.6703 182.704 79.1249 181.393 64.1991 165.672C27.5521 127.076 32.719 64.0904 24.8432 46.237Z" fill="#C6C9D3"/>
<g style="mix-blend-mode:soft-light">
<path d="M34.2253 60.2002C36.4097 65.4306 38.4896 70.7013 40.374 76.0405C42.2859 81.3688 44.0329 86.7498 45.615 92.1834C47.1733 97.6196 48.6294 103.084 49.8513 108.603C51.0979 114.115 52.1062 119.675 53.0991 125.261C54.1227 130.838 55.122 136.463 56.7003 142.002C58.2701 147.53 60.5252 152.961 63.7055 157.818C64.4998 159.028 65.3191 160.228 66.201 161.369C67.062 162.526 67.9747 163.645 68.9069 164.748C74.536 171.388 81.551 176.716 89.459 180.355C89.5883 180.419 89.7287 180.456 89.8723 180.464C90.016 180.473 90.1599 180.454 90.296 180.407C90.432 180.36 90.5576 180.287 90.6654 180.192C90.7732 180.097 90.8612 179.981 90.9243 179.852C90.9874 179.722 91.0245 179.582 91.0334 179.438C91.0422 179.295 91.0227 179.151 90.9759 179.015C90.9291 178.879 90.856 178.753 90.7607 178.645C90.6654 178.537 90.5498 178.449 90.4205 178.386L90.4168 178.385C89.1681 177.754 87.9281 177.11 86.7211 176.413C86.1119 176.074 85.519 175.709 84.9194 175.355C84.334 174.979 83.7339 174.625 83.1607 174.232C80.842 172.697 78.637 170.998 76.5631 169.146C72.4067 165.466 68.7785 161.146 65.7323 156.511C64.2334 154.177 62.9128 151.732 61.7816 149.199C60.658 146.651 59.7057 144.03 58.9314 141.354C57.3577 135.987 56.3225 130.429 55.259 124.859C54.188 119.29 53.0734 113.701 51.7306 108.166C51.0668 105.397 50.3535 102.641 49.5907 99.8985C49.2174 98.5252 48.8175 97.1587 48.4203 95.7929C48.0096 94.4304 47.5905 93.0708 47.1629 91.714C45.4369 86.2913 43.5457 80.928 41.4892 75.6239C39.4063 70.3336 37.1839 65.1005 34.7636 59.9618C34.7313 59.8915 34.6727 59.8368 34.6004 59.8095C34.5281 59.7822 34.4479 59.7844 34.3773 59.8158C34.3066 59.8471 34.2512 59.9051 34.223 59.977C34.1947 60.049 34.196 60.1291 34.2264 60.2002H34.2253Z" fill="white"/>
</g>
<path d="M70.7539 183.265C70.7468 183.692 70.6348 184.111 70.4276 184.484C70.2204 184.858 69.9245 185.175 69.566 185.407C69.2074 185.639 68.7972 185.78 68.3716 185.816C67.9459 185.853 67.5178 185.784 67.1251 185.616C57.7334 181.623 32.2014 167.933 22.451 134.08C14.2172 105.493 7.03584 90.7739 3.31212 84.318C2.52483 82.9529 3.93792 81.3762 5.3821 82.007C21.3157 88.9662 71.5798 116.253 70.7539 183.265Z" fill="#D7D9E0"/>
<path d="M68.3939 184.102C68.3293 184.187 68.2469 184.257 68.1523 184.306C68.0578 184.355 67.9536 184.383 67.8471 184.387C67.7406 184.391 67.6345 184.372 67.5364 184.33C67.4383 184.288 67.3506 184.226 67.2796 184.146C66.9787 183.809 37.0432 149.953 23.7989 110.722C23.7664 110.631 23.7523 110.535 23.7573 110.44C23.7624 110.344 23.7865 110.25 23.8283 110.163C23.87 110.077 23.9286 110 24.0006 109.936C24.0725 109.873 24.1564 109.824 24.2474 109.793C24.3383 109.763 24.4345 109.75 24.5302 109.757C24.626 109.764 24.7194 109.79 24.805 109.833C24.8906 109.877 24.9668 109.937 25.0289 110.01C25.0911 110.083 25.138 110.168 25.167 110.259C38.3147 149.205 68.0581 182.85 68.3569 183.185C68.4685 183.31 68.5332 183.47 68.5399 183.637C68.5467 183.804 68.4951 183.969 68.3939 184.102Z" fill="#EFEFF4"/>
<path d="M11.875 230.459C11.8778 231.258 12.1966 232.024 12.762 232.589C13.3273 233.153 14.0932 233.471 14.8924 233.473H178.056C178.855 233.471 179.621 233.153 180.186 232.588C180.751 232.024 181.07 231.258 181.073 230.459L182.431 136.694C182.431 135.036 180.477 131.799 176.897 132.042L17.4364 127.916C16.4066 127.889 15.3819 128.071 14.4247 128.452C13.4675 128.833 12.5977 129.404 11.868 130.132C11.1384 130.859 10.5642 131.727 10.1802 132.683C9.79621 133.639 9.61052 134.663 9.63436 135.693L11.875 230.459Z" fill="#333435"/>
<path d="M14.8539 227.567C14.8561 228.323 15.1576 229.048 15.6925 229.583C16.2273 230.118 16.9521 230.419 17.7085 230.422H174.121C174.877 230.419 175.602 230.118 176.137 229.583C176.672 229.048 176.973 228.323 176.975 227.567L178.256 142.446C178.106 137.324 173.615 135.483 170.892 135.591L18.0635 131.491C17.3396 131.472 16.6194 131.6 15.9466 131.868C15.2738 132.136 14.6625 132.538 14.1497 133.049C13.637 133.561 13.2336 134.171 12.9639 134.843C12.6942 135.515 12.564 136.235 12.5811 136.959L14.8539 227.567Z" fill="#A8ABB2"/>
<path d="M175.285 187.129H175.279C175.224 187.128 175.17 187.116 175.119 187.094C175.069 187.073 175.023 187.041 174.985 187.002C174.947 186.962 174.916 186.916 174.896 186.865C174.876 186.814 174.866 186.759 174.867 186.704L174.968 179.801C174.97 179.691 175.014 179.586 175.093 179.509C175.171 179.432 175.276 179.389 175.386 179.389H175.392C175.447 179.389 175.502 179.401 175.552 179.423C175.602 179.445 175.648 179.476 175.686 179.516C175.725 179.555 175.755 179.602 175.775 179.653C175.795 179.704 175.805 179.758 175.804 179.813L175.703 186.716C175.702 186.826 175.657 186.931 175.579 187.008C175.5 187.085 175.395 187.129 175.285 187.129Z" fill="#C6C9D3"/>
<path d="M175.534 170.212H175.528C175.473 170.211 175.418 170.2 175.368 170.178C175.317 170.156 175.272 170.125 175.233 170.085C175.195 170.046 175.165 169.999 175.145 169.948C175.125 169.897 175.115 169.842 175.115 169.787L175.504 143.348C175.496 141.778 175.02 140.524 174.086 139.63C172.345 137.961 169.58 138.046 169.463 138.052L120.616 136.742C120.561 136.74 120.507 136.728 120.456 136.706C120.406 136.683 120.361 136.651 120.323 136.612C120.285 136.572 120.256 136.525 120.236 136.473C120.217 136.422 120.207 136.367 120.209 136.313C120.208 136.257 120.218 136.202 120.24 136.15C120.261 136.099 120.293 136.053 120.334 136.015C120.374 135.976 120.422 135.947 120.475 135.928C120.527 135.909 120.583 135.902 120.638 135.906L169.457 137.216C169.76 137.198 172.704 137.147 174.665 139.025C175.768 140.082 176.332 141.538 176.34 143.352L175.952 169.8C175.95 169.91 175.905 170.014 175.827 170.092C175.749 170.169 175.644 170.212 175.534 170.212Z" fill="#C6C9D3"/>
<path d="M170.975 244.828C194.568 233.116 212.769 214.692 214.8 176.14C214.8 176.14 153.392 196.641 170.975 244.828Z" fill="#D7D9E0"/>
<path d="M173.358 243.876C189.942 245.406 205.851 241.535 219.742 221.466C219.742 221.465 179.894 212.111 173.358 243.876Z" fill="#C6C9D3"/>
<path d="M174.79 236.179C174.855 236.179 174.919 236.159 174.971 236.122C175.024 236.084 175.064 236.031 175.086 235.97C185.809 205.399 206.602 187.711 206.811 187.536C206.875 187.482 206.915 187.406 206.922 187.323C206.929 187.241 206.903 187.158 206.85 187.095C206.824 187.063 206.791 187.037 206.755 187.018C206.718 186.999 206.679 186.988 206.638 186.984C206.555 186.977 206.473 187.003 206.409 187.056C206.199 187.232 185.279 205.023 174.495 235.763C174.482 235.802 174.476 235.843 174.478 235.884C174.48 235.925 174.491 235.965 174.508 236.002C174.526 236.039 174.551 236.072 174.582 236.099C174.612 236.127 174.648 236.148 174.687 236.162C174.72 236.173 174.755 236.179 174.79 236.179Z" fill="#EFEFF4"/>
<path d="M182.767 238.575C182.813 238.576 182.858 238.566 182.899 238.547C182.94 238.527 182.977 238.5 183.006 238.465C192.365 227.433 213.304 223.873 213.514 223.838C213.555 223.831 213.594 223.817 213.628 223.795C213.663 223.773 213.694 223.745 213.718 223.712C213.741 223.678 213.759 223.64 213.768 223.6C213.777 223.56 213.779 223.519 213.772 223.478C213.766 223.438 213.752 223.399 213.73 223.363C213.709 223.328 213.68 223.298 213.647 223.274C213.613 223.25 213.575 223.232 213.535 223.223C213.495 223.214 213.453 223.213 213.413 223.221C213.2 223.255 192.035 226.855 182.529 238.06C182.49 238.106 182.465 238.161 182.457 238.221C182.449 238.28 182.458 238.34 182.484 238.394C182.509 238.448 182.549 238.494 182.599 238.526C182.649 238.558 182.708 238.575 182.767 238.575Z" fill="#E8E8EF"/>
<path d="M188.277 48.2426L190.137 96.0128L176.628 96.5388L174.768 48.7686C174.061 30.6061 159.69 16.3725 142.717 17.0333C125.745 17.6942 112.538 33.0016 113.245 51.164L115.105 98.9342L101.596 99.4602L99.7359 51.69C98.723 25.6751 117.755 3.75036 142.163 2.80003C166.571 1.84969 187.265 22.2334 188.277 48.2426Z" fill="#C7C7C7"/>
<path d="M100.231 64.1147L113.762 64.132L115.117 98.9335L101.608 99.4595L100.231 64.1147Z" fill="#F7EBA6"/>
<path d="M188.902 64.2725L190.137 96.0129L176.628 96.5389L175.371 64.2466L188.902 64.2725Z" fill="#F7EBA6"/>
<path d="M206.376 68.1406L83.248 72.9346L87.5973 184.64L210.725 179.846L206.376 68.1406Z" fill="#FFCE3C"/>
<path d="M206.375 68.1406L144.812 70.5376L149.161 182.243L210.725 179.846L206.375 68.1406Z" fill="#F7E057"/>
<path d="M152.354 130.28L158.46 154.528L136.587 155.379L140.788 130.73C138.723 129.552 137.097 127.734 136.157 125.55C135.217 123.365 135.014 120.935 135.578 118.625C136.142 116.315 137.444 114.251 139.285 112.747C141.127 111.242 143.408 110.379 145.784 110.286C148.16 110.194 150.502 110.877 152.455 112.234C154.408 113.591 155.866 115.547 156.608 117.806C157.35 120.065 157.337 122.504 156.569 124.755C155.802 127.006 154.322 128.945 152.354 130.28Z" fill="#263238"/>
<path opacity="0.63" d="M211.544 130.614L210.187 129.325C209.884 129.037 209.485 128.872 209.068 128.86C208.65 128.848 208.242 128.99 207.923 129.26L137.231 189.114L103.135 156.731C102.82 156.432 102.402 156.265 101.967 156.265C101.532 156.265 101.114 156.432 100.799 156.731L26.117 227.661C25.7908 227.971 25.601 228.398 25.5894 228.848C25.5778 229.297 25.7454 229.733 26.0552 230.059C26.365 230.386 26.7917 230.575 27.2414 230.587C27.6911 230.598 28.127 230.431 28.4531 230.121L101.967 160.3L135.997 192.621C136.3 192.909 136.699 193.075 137.117 193.087C137.535 193.099 137.942 192.956 138.262 192.686L208.954 132.832L211.544 135.293V130.614Z" fill="white"/>
<path d="M100.984 169.308C105.612 169.308 109.364 165.745 109.364 161.349C109.364 156.953 105.612 153.389 100.984 153.389C96.3552 153.389 92.603 156.953 92.603 161.349C92.603 165.745 96.3552 169.308 100.984 169.308Z" fill="white"/>
<path d="M208.968 138.515C213.597 138.515 217.349 134.951 217.349 130.555C217.349 126.159 213.597 122.596 208.968 122.596C204.34 122.596 200.587 126.159 200.587 130.555C200.587 134.951 204.34 138.515 208.968 138.515Z" fill="white"/>
</svg>
