<svg width="28" height="29" viewBox="0 0 28 29" fill="none" xmlns="http://www.w3.org/2000/svg">
<path d="M15.6497 6.10449H6.85151C6.49408 6.10449 6.1504 6.11824 5.82047 6.15948C2.12247 6.47567 0.266602 8.66147 0.266602 12.6894V18.1883C0.266602 23.6871 2.46615 24.7732 6.85151 24.7732H7.40139C7.70383 24.7732 8.1025 24.9794 8.28121 25.2131L9.93088 27.4126C10.6595 28.3887 11.8417 28.3887 12.5703 27.4126L14.22 25.2131C14.4262 24.9381 14.7561 24.7732 15.0998 24.7732H15.6497C19.6776 24.7732 21.8634 22.9311 22.1796 19.2193C22.2209 18.8894 22.2346 18.5457 22.2346 18.1883V12.6894C22.2346 8.30404 20.0351 6.10449 15.6497 6.10449ZM6.45284 17.1022C5.683 17.1022 5.07812 16.4836 5.07812 15.7275C5.07812 14.9714 5.69674 14.3528 6.45284 14.3528C7.20893 14.3528 7.82756 14.9714 7.82756 15.7275C7.82756 16.4836 7.20893 17.1022 6.45284 17.1022ZM11.2506 17.1022C10.4808 17.1022 9.87589 16.4836 9.87589 15.7275C9.87589 14.9714 10.4945 14.3528 11.2506 14.3528C12.0067 14.3528 12.6253 14.9714 12.6253 15.7275C12.6253 16.4836 12.0205 17.1022 11.2506 17.1022ZM16.0621 17.1022C15.2923 17.1022 14.6874 16.4836 14.6874 15.7275C14.6874 14.9714 15.306 14.3528 16.0621 14.3528C16.8182 14.3528 17.4368 14.9714 17.4368 15.7275C17.4368 16.4836 16.8182 17.1022 16.0621 17.1022Z" fill="#1C1C1C"/>
<path d="M27.7335 7.19037V12.6892C27.7335 15.4387 26.8812 17.3083 25.1765 18.3393C24.7641 18.5868 24.2829 18.2569 24.2829 17.7757L24.2967 12.6892C24.2967 7.19037 21.1486 4.04227 15.6497 4.04227L7.27766 4.05601C6.79651 4.05601 6.46658 3.57486 6.71402 3.16245C7.74506 1.45779 9.61468 0.605469 12.3504 0.605469H21.1486C25.5339 0.605469 27.7335 2.80502 27.7335 7.19037Z" fill="#1C1C1C"/>
</svg>
